<?xml version="1.0" standalone="no"?>
<!DOCTYPE svg PUBLIC "-//W3C//DTD SVG 20010904//EN"
 "http://www.w3.org/TR/2001/REC-SVG-20010904/DTD/svg10.dtd">
<svg version="1.0" xmlns="http://www.w3.org/2000/svg"
 width="500.000000pt" height="500.000000pt" viewBox="0 0 500.000000 500.000000"
 preserveAspectRatio="xMidYMid meet">

<g transform="translate(0.000000,500.000000) scale(0.100000,-0.100000)"
fill="#000000" stroke="none">
<path d="M1140 3686 l0 -34 93 -4 c68 -3 103 -10 133 -26 53 -27 104 -85 105
-120 1 -47 6 -60 39 -100 31 -39 70 -142 70 -185 0 -19 -2 -18 -19 9 -10 17
-32 41 -47 53 l-29 23 -5 -79 c-3 -45 -8 -73 -13 -65 -5 6 -13 12 -20 12 -6 0
-1 -7 11 -16 l22 -15 0 -383 0 -384 46 6 c57 6 102 -15 129 -60 19 -33 25
-112 9 -128 -5 -5 -8 8 -6 34 2 27 -2 56 -12 75 -38 72 -155 83 -168 16 -2
-11 -9 -19 -14 -18 -5 1 -11 -10 -12 -25 l-2 -27 13 24 c18 36 41 47 74 35 63
-22 48 -114 -19 -114 -19 0 -42 9 -57 23 l-26 22 23 -26 c20 -23 22 -35 22
-142 0 -67 5 -127 12 -142 8 -18 8 -31 0 -48 -6 -12 -12 -34 -15 -49 -4 -25
-2 -27 22 -22 34 8 61 40 61 73 1 23 2 24 11 7 16 -26 5 -103 -19 -135 -13
-17 -29 -26 -48 -26 -28 0 -29 -2 -25 -37 2 -26 -1 -38 -10 -38 -7 0 -10 -2
-7 -5 13 -13 91 31 126 71 62 70 78 165 46 273 -18 62 -14 73 14 34 69 -99 57
-249 -28 -347 -33 -37 -96 -76 -123 -76 -10 0 -16 -18 -21 -57 -15 -130 -84
-184 -243 -191 l-93 -4 0 -34 0 -34 640 0 640 0 0 35 0 35 -73 0 c-88 0 -155
18 -204 55 -45 35 -63 78 -64 157 l-2 63 -6 -49 c-7 -48 -29 -76 -59 -76 -78
0 -184 137 -198 257 l-6 48 20 -30 c43 -67 88 -89 149 -72 45 12 67 2 83 -38
5 -11 9 118 8 290 0 284 -1 305 -14 250 -7 -33 -14 -82 -14 -110 l-2 -50 -10
35 c-16 54 -2 203 30 330 16 63 32 136 36 162 6 42 5 47 -9 42 -17 -7 -17 -8
-14 345 0 30 2 58 4 61 3 4 -12 3 -33 -3 -31 -8 -46 -6 -85 11 -75 33 -92 102
-25 102 53 -1 96 -47 77 -82 -8 -15 -6 -18 13 -18 47 0 49 9 49 156 l0 139
-38 17 c-103 47 -229 -11 -278 -129 -19 -45 -19 -144 0 -207 8 -27 13 -51 11
-54 -11 -10 -57 78 -66 126 -23 122 37 248 145 305 58 31 156 30 209 -1 25
-15 35 -18 27 -8 -11 13 -11 31 -3 87 20 131 83 179 245 187 l97 5 0 33 0 34
-640 0 -640 0 0 -34z m442 -17 c45 -24 72 -145 48 -219 l-8 -25 -1 28 c-1 36
-27 96 -43 102 -7 2 -32 9 -55 15 -34 8 -44 16 -49 37 -6 21 -1 31 20 50 30
25 56 29 88 12z m336 -102 c5 -40 -12 -61 -99 -127 -44 -34 -85 -70 -92 -81
-6 -10 -15 -19 -19 -19 -30 0 29 194 71 234 56 54 132 50 139 -7z m6 -300 c31
-23 17 -60 -28 -72 -44 -13 -66 -37 -66 -74 0 -21 -2 -23 -10 -11 -21 33 -7
115 27 152 19 21 52 23 77 5z m-399 -137 c80 -49 113 -138 124 -325 5 -77 13
-152 20 -167 13 -33 8 -35 -26 -8 -31 24 -39 20 -22 -12 14 -25 19 -171 6
-185 -12 -11 -44 34 -64 92 -12 33 -18 79 -18 135 l0 86 -29 -4 -29 -5 21 30
c42 60 65 125 66 193 1 73 -14 108 -65 158 -37 37 -31 41 16 12z m207 -354
c-7 -78 44 -136 118 -136 41 0 90 47 90 87 l0 28 -13 -24 c-18 -36 -41 -47
-74 -35 -64 22 -48 114 20 114 67 0 105 -78 67 -138 -32 -52 -101 -67 -161
-36 -53 27 -82 126 -52 177 8 13 8 8 5 -37z m68 -243 c34 -58 53 -149 46 -219
l-6 -61 30 5 31 4 -31 -48 c-35 -56 -60 -132 -60 -183 1 -50 33 -117 78 -159
l37 -35 -44 24 c-95 52 -130 135 -141 334 -4 77 -12 152 -18 168 -15 36 -5 34
36 -5 l33 -33 -14 35 c-8 19 -18 54 -22 78 -8 48 1 132 15 132 4 0 18 -16 30
-37z m-110 -897 c0 -50 -49 -181 -78 -209 -59 -57 -142 -52 -142 9 0 41 15 60
101 124 44 34 85 70 92 81 16 26 27 24 27 -5z m105 -176 c9 -10 34 -22 56 -25
69 -12 87 -48 44 -90 -42 -43 -92 -29 -125 35 -20 40 -26 121 -13 170 6 21 8
18 14 -23 4 -27 15 -57 24 -67z"/>
<path d="M2590 3685 l0 -35 68 0 c122 0 210 -40 250 -114 15 -28 17 -79 20
-478 l3 -448 -390 0 -391 0 -4 -22 c-2 -13 -8 -49 -13 -80 l-10 -58 404 0 403
0 0 -432 c0 -238 -4 -459 -10 -492 -19 -116 -87 -166 -237 -174 l-93 -5 0 -33
0 -34 635 0 635 0 0 34 0 34 -92 4 c-106 5 -155 25 -206 82 -24 28 -32 47 -37
98 -3 35 -5 493 -3 1018 3 1040 -1 972 61 1038 40 41 108 62 204 62 l73 0 0
35 0 35 -635 0 -635 0 0 -35z"/>
<path d="M2141 2704 c0 -11 3 -14 6 -6 3 7 2 16 -1 19 -3 4 -6 -2 -5 -13z"/>
<path d="M1448 1863 c7 -3 16 -2 19 1 4 3 -2 6 -13 5 -11 0 -14 -3 -6 -6z"/>
<path d="M1441 1764 c0 -11 3 -14 6 -6 3 7 2 16 -1 19 -3 4 -6 -2 -5 -13z"/>
</g>
</svg>
