<?xml version="1.0" standalone="no"?>
<!DOCTYPE svg PUBLIC "-//W3C//DTD SVG 20010904//EN"
 "http://www.w3.org/TR/2001/REC-SVG-20010904/DTD/svg10.dtd">
<svg version="1.0" xmlns="http://www.w3.org/2000/svg"
      width="500.000000pt" height="600.000000pt" viewBox="150 80 300.000000 300.000000"  stroke="#B0B0B0" fill="#B0B0B0">
     <g transform="translate(0.000000,500.000000) scale(0.11,-0.11)"
     fill="#000000" stroke="#000000">
<path d="M3495 4108 c-8 -18 -34 -87 -57 -153 l-43 -120 -52 -1 -53 -2 -1 62
c0 33 -6 79 -12 100 l-12 40 -44 -68 c-48 -72 -71 -144 -71 -215 0 -24 -2 -42
-4 -40 -3 3 -19 56 -36 118 -34 125 -86 246 -117 274 -20 17 -20 17 -27 -29
-10 -76 -7 -132 10 -172 17 -42 67 -97 106 -118 19 -10 31 -28 42 -68 9 -30
16 -56 16 -59 0 -3 -22 9 -50 28 -47 31 -156 72 -167 61 -2 -2 16 -35 41 -73
48 -73 92 -105 159 -117 61 -11 43 -39 -28 -42 -73 -4 -96 -72 -55 -163 11
-24 20 -45 20 -47 0 -2 -18 -4 -40 -4 -82 0 -149 -51 -136 -104 3 -14 18 -38
32 -55 28 -33 28 -38 4 -131 -6 -24 -8 -55 -5 -68 4 -16 -28 -110 -99 -298
-102 -265 -109 -279 -195 -405 -50 -72 -92 -136 -94 -142 -2 -7 -7 -9 -11 -6
-4 4 0 58 9 120 26 190 17 464 -16 485 -14 8 -35 -50 -71 -191 -18 -69 -35
-125 -38 -125 -3 0 -17 31 -33 68 -27 67 -27 69 -11 121 8 29 15 82 15 118 0
57 2 64 17 57 84 -35 160 28 217 180 34 92 42 170 22 219 -9 20 -21 37 -26 37
-6 0 -11 8 -11 18 0 31 -32 50 -95 56 -33 3 -89 10 -125 15 -140 22 -142 22
-200 -7 -32 -16 -64 -41 -77 -61 l-23 -33 -18 43 c-10 24 -74 178 -142 341
-67 164 -126 295 -131 293 -4 -3 -213 -6 -463 -6 l-456 -1 0 -34 c0 -33 1 -34
43 -34 61 0 146 -25 174 -52 61 -57 58 5 61 -1118 3 -1095 1 -1154 -44 -1248
-35 -72 -80 -104 -191 -132 -39 -10 -43 -13 -43 -43 l0 -32 370 0 370 0 0 31
c0 31 0 31 -87 48 -113 22 -160 43 -205 94 -76 84 -72 21 -78 1200 -3 578 -3
1057 -1 1064 2 6 14 -13 26 -43 13 -30 142 -340 289 -689 197 -471 266 -646
266 -675 l0 -40 -30 63 c-16 34 -44 81 -62 104 -31 38 -139 118 -161 118 -15
0 -1 -110 23 -173 29 -77 89 -142 166 -178 64 -30 70 -38 87 -116 6 -29 3 -29
-37 2 -57 43 -202 93 -219 76 -17 -17 13 -108 49 -149 39 -46 86 -67 182 -83
l69 -11 26 -57 c14 -30 24 -57 23 -59 -2 -1 -15 2 -30 8 -59 22 -212 1 -233
-33 -17 -28 106 -87 181 -87 17 0 54 11 83 24 49 23 52 24 68 6 8 -9 37 -32
64 -50 47 -32 50 -38 124 -214 l76 -181 33 0 33 0 326 850 325 850 30 -3 c16
-1 51 4 77 12 45 13 48 13 42 -2 -18 -44 -23 -75 -18 -107 5 -32 4 -35 -19
-35 -36 0 -86 -19 -92 -35 -15 -40 85 -62 132 -29 13 9 25 14 27 12 2 -2 -4
-25 -13 -51 -17 -47 -17 -47 -62 -47 -63 0 -118 -17 -147 -46 -19 -19 -22 -28
-13 -44 19 -36 120 -19 174 28 18 16 19 16 12 -3 -4 -11 -13 -46 -19 -77 l-10
-57 -46 -6 c-143 -18 -222 -85 -163 -138 40 -37 108 -14 165 54 l35 42 -6 -94
c-2 -52 -10 -97 -16 -101 -6 -4 -33 -12 -59 -18 -61 -13 -91 -33 -111 -75 -22
-45 -20 -77 5 -109 17 -22 27 -26 47 -21 40 10 82 44 112 91 l27 43 17 -87 c9
-48 27 -110 40 -137 26 -58 78 -121 107 -130 17 -6 19 -16 19 -108 0 -115 -14
-216 -35 -258 -26 -49 -69 -71 -176 -88 l-99 -15 0 -31 0 -30 600 0 600 0 0
31 0 31 -82 12 c-88 14 -110 22 -145 54 -30 27 -29 33 5 42 39 9 195 67 206
77 5 4 -21 22 -59 39 -50 24 -86 33 -141 37 -41 3 -74 7 -74 9 0 2 25 33 56
68 51 57 62 65 103 70 122 15 179 55 250 175 23 38 41 71 41 73 0 8 -132 -34
-172 -54 -21 -11 -54 -34 -74 -52 l-37 -32 7 30 c26 106 37 131 66 148 127 75
167 161 155 332 l-7 107 -24 -23 c-55 -52 -115 -195 -170 -404 -27 -102 -29
-107 -31 -65 -5 79 -24 163 -50 214 -33 66 -94 156 -104 156 -13 0 -11 1279 1
1364 6 39 18 84 28 100 25 44 95 76 181 83 l71 6 0 34 0 35 -307 -3 c-200 -3
-308 0 -308 6 1 6 5 49 9 97 9 93 1 198 -15 198 -5 0 -16 -15 -24 -32z m-430
-181 c20 -60 35 -115 33 -123 -5 -25 -78 45 -104 100 -25 53 -28 84 -17 150
l6 39 23 -28 c13 -16 39 -78 59 -138z m455 129 c0 -49 -22 -233 -36 -301 -17
-87 -85 -305 -94 -305 -16 0 -33 93 -27 153 8 83 27 154 89 330 50 141 68 174
68 123z m-246 -87 c19 -96 -10 -193 -79 -259 l-35 -34 0 60 c0 32 5 77 11 99
11 42 78 165 90 165 3 0 9 -14 13 -31z m350 -255 c-26 -92 -59 -148 -130 -224
-72 -76 -90 -86 -80 -42 15 61 207 344 223 328 3 -2 -3 -30 -13 -62z m-583
-16 c54 -23 134 -100 126 -121 -7 -20 -87 -5 -127 23 -25 18 -90 107 -90 124
0 9 29 1 91 -26z m163 -39 c-10 -24 -19 -46 -21 -49 -4 -5 -23 21 -23 32 0 10
52 69 57 65 2 -3 -4 -24 -13 -48z m116 -111 c36 -39 52 -114 57 -260 4 -112 3
-138 -8 -138 -13 0 -27 38 -71 190 -16 58 -18 60 -13 19 3 -25 14 -73 24 -107
11 -34 16 -62 13 -62 -9 1 -82 102 -116 163 -16 26 -30 47 -33 47 -10 0 80
-154 133 -228 30 -41 6 -35 -78 21 -124 81 -188 161 -188 232 0 50 16 65 71
65 58 0 103 17 142 54 34 32 41 32 67 4z m250 -174 c33 -30 45 -35 70 -30 16
3 43 9 60 12 25 5 30 3 36 -21 9 -37 -11 -99 -45 -138 -16 -17 -62 -49 -102
-70 -71 -36 -76 -37 -112 -25 l-37 13 44 38 c25 20 61 46 80 58 20 12 36 23
36 25 0 7 -94 -43 -129 -70 -44 -33 -51 -33 -51 3 0 21 14 45 53 88 55 61 41
56 -30 -11 l-43 -40 0 92 c0 105 4 110 87 111 36 1 50 -5 83 -35z m-464 -115
c16 -17 55 -46 87 -66 32 -19 57 -37 55 -39 -2 -1 -35 1 -73 6 -144 18 -168
20 -163 15 3 -3 59 -15 124 -26 149 -25 161 -28 143 -40 -8 -5 -63 -25 -124
-44 -92 -30 -213 -78 -151 -60 11 3 67 17 124 31 58 15 120 32 138 40 31 13
33 12 39 -7 10 -30 -8 -57 -68 -106 -95 -76 -186 -113 -242 -99 -54 14 -72 89
-41 179 17 51 13 70 -24 112 -58 66 -4 130 116 134 22 1 39 -8 60 -30z m-819
4 c7 -21 -30 -33 -52 -17 -17 13 -18 16 -5 24 19 13 52 9 57 -7z m-543 -66
c77 -104 121 -227 133 -371 l6 -79 -67 54 c-109 87 -178 214 -160 297 15 73
38 152 43 152 3 0 23 -24 45 -53z m695 40 c40 -20 64 -62 63 -109 -1 -97 -104
-348 -142 -348 -3 0 4 31 16 68 25 73 50 210 40 219 -3 4 -6 -3 -6 -14 0 -26
-34 -159 -51 -198 -12 -28 -14 -20 -25 100 l-12 130 2 -147 c1 -82 0 -148 -3
-148 -9 0 -59 166 -72 235 -6 33 -9 84 -7 114 4 45 10 59 37 83 26 23 40 28
84 28 28 0 63 -6 76 -13z m-211 -6 c11 -7 11 -16 1 -51 -16 -52 -1 -171 36
-285 30 -90 30 -91 8 -74 -22 18 -68 122 -92 206 -11 37 -20 59 -20 48 -1 -30
37 -161 59 -206 11 -21 30 -47 42 -59 12 -11 16 -20 10 -20 -32 0 -72 62 -127
194 -54 130 -57 142 -46 177 19 62 86 98 129 70z m330 -3 c20 -20 14 -35 -15
-41 -19 -3 -31 1 -44 17 -10 11 -18 24 -19 29 0 12 65 8 78 -5z m41 -74 c69
-88 -59 -404 -163 -404 -41 0 -51 10 -27 26 25 18 141 194 128 194 -3 0 -24
-29 -47 -64 -55 -85 -81 -106 -46 -38 30 59 76 221 76 269 0 49 46 59 79 17z
m795 -33 c24 -26 17 -53 -16 -65 -48 -17 -78 32 -42 68 21 21 37 20 58 -3z
m133 -52 c130 -46 172 -68 188 -100 21 -39 19 -46 -14 -57 -37 -13 -54 -44
-46 -83 9 -39 -10 -83 -41 -98 -31 -14 -40 -14 -104 0 -37 8 -50 15 -50 28 0
10 -11 45 -25 80 -28 68 -59 190 -51 199 8 8 35 -18 77 -73 40 -52 152 -175
128 -140 -8 11 -35 45 -60 75 -53 63 -100 132 -95 138 3 2 31 -14 63 -35 32
-22 65 -43 73 -48 28 -14 -54 55 -102 87 -43 28 -63 58 -39 58 5 0 49 -14 98
-31z m-157 -82 c0 -18 12 -63 26 -102 59 -160 63 -187 32 -226 -26 -34 -53
-32 -99 7 -44 37 -46 37 -122 18 -57 -14 -104 70 -77 136 13 31 85 110 101
110 5 0 4 -12 -2 -26 -5 -15 -8 -29 -5 -31 2 -2 12 16 21 41 19 50 65 102 65
73 0 -9 -9 -55 -20 -103 -11 -48 -19 -89 -17 -91 3 -2 15 30 28 71 13 42 27
76 31 76 4 0 9 -30 11 -67 2 -47 4 -33 5 45 1 72 6 111 12 107 6 -3 10 -21 10
-38z m-1304 -131 c-7 -62 -35 -120 -97 -198 -28 -34 -54 -69 -59 -78 -34 -60
2 117 47 229 14 36 42 92 62 124 l36 57 8 -42 c4 -24 6 -65 3 -92z m202 -82
c28 -14 32 -20 32 -57 0 -69 -14 -75 -37 -15 -12 29 -24 61 -28 71 -9 21 -6
21 33 1z m90 -69 c4 -42 -16 -155 -27 -155 -17 0 -28 64 -23 129 4 66 6 72 26
69 17 -2 22 -11 24 -43z m782 -25 c0 -15 -36 -30 -75 -30 -24 0 -35 4 -33 12
8 22 108 39 108 18z m-1383 -68 c51 -62 73 -131 73 -226 l0 -71 -20 25 c-10
14 -40 65 -66 114 -37 71 -48 101 -52 153 -6 80 3 80 65 5z m1487 32 c3 -9 6
-33 6 -54 l0 -38 -42 21 c-24 12 -44 23 -46 24 -6 2 20 48 32 55 19 13 44 9
50 -8z m-729 -249 c-9 -148 -17 -225 -24 -225 -4 0 -22 36 -40 80 l-34 81 33
127 c48 187 52 193 62 102 4 -41 6 -115 3 -165z m708 143 c19 -14 27 -28 27
-49 0 -35 -18 -38 -48 -6 -23 25 -44 72 -35 81 6 6 14 2 56 -26z m-6 -93 c27
-17 32 -26 33 -59 l0 -38 -33 29 c-18 16 -47 35 -65 42 -36 15 -36 15 -21 77
l12 45 21 -38 c12 -21 36 -47 53 -58z m-123 74 c-9 -16 -85 -49 -111 -49 -45
0 -36 44 10 53 48 9 108 7 101 -4z m-1044 -54 c-33 -97 -71 -155 -134 -206
-33 -27 -62 -47 -63 -45 -7 7 33 101 62 146 30 48 133 160 146 160 4 0 -1 -25
-11 -55z m1110 -75 c44 -23 70 -54 70 -87 0 -68 -88 -4 -115 85 -8 27 -4 27
45 2z m-1550 -17 c48 -31 93 -79 131 -136 37 -57 74 -148 67 -167 -5 -16 -100
35 -141 76 -47 48 -84 124 -93 192 -7 56 -2 61 36 35z m1523 -56 c29 -49 65
-72 96 -62 20 6 21 3 21 -72 l0 -78 -20 32 c-20 34 -85 73 -120 73 -17 0 -20
6 -20 38 0 37 10 112 15 112 2 0 14 -19 28 -43z m-83 4 c0 -18 -81 -91 -102
-93 -60 -4 -84 11 -68 43 17 30 170 76 170 50z m1182 -142 c1 -54 -3 -77 -26
-123 -31 -63 -129 -158 -134 -131 -6 26 75 266 110 325 l31 55 9 -30 c5 -16 9
-60 10 -96z m-2144 -1 c-5 -103 -26 -157 -98 -254 -41 -54 -100 -92 -111 -71
-8 14 16 135 35 182 31 73 146 235 168 235 7 0 9 -32 6 -92z m567 45 c-8 -21
-32 -83 -54 -138 l-39 -100 -16 37 c-16 37 -15 38 15 90 33 56 98 148 105 148
2 0 -3 -17 -11 -37z m489 -47 c42 -18 76 -61 76 -97 0 -31 -16 -37 -50 -19
-24 13 -80 93 -80 114 0 20 11 20 54 2z m773 -65 c56 -93 72 -146 79 -254 l6
-92 -52 54 c-79 83 -100 133 -100 233 0 84 7 128 19 128 4 0 26 -31 48 -69z
m-2051 -28 c21 -48 24 -67 18 -108 -10 -80 -20 -84 -32 -14 -16 92 -24 179
-18 179 4 0 18 -26 32 -57z m1330 -53 c17 0 35 5 42 12 9 9 12 -11 12 -90 0
-115 5 -112 -73 -52 -60 46 -74 72 -83 150 l-7 65 40 -42 c30 -32 48 -43 69
-43z m-159 -4 c-30 -64 -97 -117 -125 -99 -39 24 -20 103 31 130 43 22 111 41
115 31 2 -4 -8 -32 -21 -62z m-1324 -45 c62 -24 119 -73 139 -118 11 -25 18
-47 15 -49 -8 -8 -129 16 -164 33 -18 8 -46 30 -62 49 -29 33 -55 99 -45 115
4 8 57 -6 117 -30z m1477 -127 c59 -45 60 -46 60 -95 0 -27 -3 -49 -6 -49 -18
0 -47 26 -68 63 -26 43 -59 127 -51 127 3 0 32 -21 65 -46z m687 23 c6 -13 34
-48 62 -79 28 -31 51 -61 51 -68 0 -21 -70 -147 -95 -170 l-23 -22 13 39 c24
65 14 188 -20 256 -16 33 -20 67 -7 67 5 0 13 -10 19 -23z m-1902 -54 c12 -29
14 -47 5 -87 -5 -28 -11 -60 -13 -71 -2 -14 -13 0 -34 45 -48 100 -49 112 -11
131 18 9 34 17 35 18 2 0 10 -16 18 -36z m2259 -45 c-58 -95 -114 -133 -209
-144 l-57 -7 15 29 c22 42 95 108 147 135 58 29 124 49 128 38 2 -4 -9 -27
-24 -51z m-2201 -130 c-30 -52 -43 -47 -43 16 0 55 17 114 43 144 22 27 22
-123 0 -160z m1844 60 c6 -81 -2 -148 -17 -148 -6 0 -10 51 -10 122 0 86 3
119 11 111 6 -6 13 -44 16 -85z m-1950 -53 c46 -19 42 -40 -12 -61 -56 -21
-135 -15 -195 16 -50 25 -45 36 27 56 53 15 128 10 180 -11z m147 -68 c23 -60
21 -63 -24 -27 -39 31 -40 33 -24 51 24 27 29 24 48 -24z m1963 -162 l58 -27
-85 -34 c-111 -43 -136 -44 -144 -3 -3 17 -6 47 -6 67 l0 35 59 -6 c34 -3 85
-17 118 -32z"/>
<path d="M3351 2784 c0 -11 3 -14 6 -6 3 7 2 16 -1 19 -3 4 -6 -2 -5 -13z"/>
<path d="M2437 3544 c-8 -8 1 -24 14 -24 5 0 9 7 9 15 0 15 -12 20 -23 9z"/>
<path d="M2060 3495 c0 -8 7 -15 15 -15 8 0 15 7 15 15 0 8 -7 15 -15 15 -8 0
-15 -7 -15 -15z"/>
<path d="M2924 3429 c-3 -6 -2 -15 4 -21 13 -13 32 -2 32 18 0 16 -26 19 -36
3z"/>
<path d="M2305 3390 c-8 -13 4 -32 16 -25 12 8 12 35 0 35 -6 0 -13 -4 -16
-10z"/>
<path d="M2117 3384 c-12 -12 -8 -42 6 -47 21 -8 39 8 35 29 -3 19 -29 30 -41
18z"/>
<path d="M2770 2890 c0 -5 5 -10 10 -10 6 0 10 5 10 10 0 6 -4 10 -10 10 -5 0
-10 -4 -10 -10z"/>
<path d="M2654 2689 c-3 -6 1 -18 10 -27 15 -15 17 -15 32 0 19 19 11 38 -16
38 -10 0 -22 -5 -26 -11z"/>
<path d="M4124 2549 c-8 -14 11 -33 25 -25 16 10 13 36 -3 36 -8 0 -18 -5 -22
-11z"/>
<path d="M3996 2333 c-12 -12 -6 -33 9 -33 8 0 15 6 15 14 0 17 -14 28 -24 19z"/>
<path d="M4130 1500 c0 -13 5 -20 13 -17 6 2 12 10 12 17 0 7 -6 15 -12 18 -8
2 -13 -5 -13 -18z"/>
<path d="M1882 1441 c4 -13 18 -16 19 -4 0 4 -5 9 -11 12 -7 2 -11 -2 -8 -8z"/>
<path d="M2030 1404 c0 -17 22 -14 28 4 2 7 -3 12 -12 12 -9 0 -16 -7 -16 -16z"/>
<path d="M4082 1278 c2 -15 10 -23 23 -23 30 0 27 39 -3 43 -20 3 -23 0 -20
-20z"/>
</g>
</svg>
