<?xml version="1.0" standalone="no"?>
<!DOCTYPE svg PUBLIC "-//W3C//DTD SVG 20010904//EN"
 "http://www.w3.org/TR/2001/REC-SVG-20010904/DTD/svg10.dtd">
<svg version="1.0" xmlns="http://www.w3.org/2000/svg"
 width="821.000000pt" height="304.000000pt" viewBox="0 0 821.000000 304.000000"
 preserveAspectRatio="xMidYMid meet">

<g transform="translate(0.000000,304.000000) scale(0.100000,-0.100000)"
fill="#000000" stroke="none">
<path d="M5020 2975 c-154 -44 -271 -166 -256 -271 16 -123 116 -207 246 -208
55 -1 73 4 120 30 97 55 142 162 95 226 -24 33 -90 68 -128 68 -31 0 -75 -37
-78 -65 -3 -44 -1 -46 31 -30 40 21 63 19 88 -8 28 -29 29 -81 2 -124 -23 -39
-48 -53 -97 -55 -53 -2 -98 25 -127 75 -69 119 -28 230 111 299 55 27 77 32
132 32 122 -2 218 -51 264 -137 33 -62 31 -182 -5 -258 -31 -67 -90 -127 -167
-168 -172 -91 -623 -183 -1211 -245 -123 -14 -227 -23 -231 -20 -4 2 -9 17
-13 34 -5 30 -7 31 -43 24 -21 -4 -39 -8 -41 -9 -1 -1 4 -41 12 -88 9 -47 18
-134 21 -194 10 -175 9 -173 55 -173 47 0 46 -10 29 189 -6 73 -10 134 -8 136
2 2 105 15 229 30 124 14 261 33 305 41 126 22 120 24 134 -53 57 -302 72
-422 110 -843 33 -358 55 -729 49 -830 l-3 -65 -70 -2 c-38 -2 -85 -5 -102 -8
-31 -6 -33 -8 -33 -47 l0 -41 38 7 c78 13 213 26 382 37 96 6 209 16 250 22
l75 12 3 49 c4 56 16 54 -123 17 -49 -13 -128 -24 -204 -28 l-124 -6 6 174
c24 625 29 881 22 1254 l-7 410 109 13 c299 36 529 112 628 207 82 80 126 221
104 327 -22 102 -120 196 -259 250 -73 28 -241 35 -320 13z"/>
<path d="M6013 2629 c-168 -28 -307 -135 -389 -298 -36 -74 -46 -217 -19 -288
22 -57 140 -180 204 -213 54 -27 145 -37 193 -21 49 16 113 84 149 158 26 52
31 72 30 134 0 61 -6 84 -30 134 -35 70 -70 95 -133 95 -85 0 -166 -71 -175
-153 -3 -25 0 -54 7 -66 10 -20 65 -61 82 -61 4 0 5 20 2 44 -10 67 0 93 40
106 42 13 111 0 139 -28 39 -39 18 -136 -39 -181 -32 -25 -114 -51 -163 -51
-65 0 -151 31 -188 68 -48 48 -65 93 -65 174 0 88 26 142 99 207 92 82 226
108 341 66 163 -60 340 -272 458 -550 133 -316 161 -378 209 -475 87 -173 168
-298 257 -398 l39 -42 -60 -118 c-111 -217 -247 -400 -372 -499 -122 -96 -222
-130 -354 -118 -170 14 -310 87 -336 175 -33 109 114 199 324 200 104 0 145
-31 135 -101 -3 -25 -55 -65 -97 -76 -14 -3 -55 -1 -90 5 -36 6 -67 9 -70 6
-10 -10 16 -58 42 -78 42 -31 93 -26 158 16 30 19 69 51 87 72 27 31 32 44 32
88 0 73 -31 133 -84 161 -35 19 -57 22 -151 22 -98 0 -116 -3 -159 -25 -65
-33 -140 -111 -176 -184 -24 -48 -30 -72 -30 -126 0 -220 142 -342 400 -344
101 -1 108 0 180 35 88 42 204 133 276 215 145 168 330 470 539 879 265 521
518 987 614 1134 7 11 28 10 131 -4 67 -9 124 -14 127 -11 3 2 6 19 6 37 l2
32 -215 28 c-215 28 -284 39 -350 59 -19 5 -35 10 -36 10 -3 0 -25 -82 -22
-84 2 -1 54 -10 117 -19 63 -9 115 -18 117 -19 5 -6 -636 -1283 -645 -1286
-25 -8 -117 201 -212 480 -186 552 -251 699 -374 853 -72 89 -133 140 -220
181 -105 50 -175 61 -282 43z"/>
<path d="M3565 2558 c-143 -37 -243 -48 -442 -48 l-163 0 0 -40 0 -40 125 7
125 6 0 -89 c1 -520 56 -1459 110 -1879 11 -82 20 -153 20 -157 0 -5 -35 -8
-78 -8 -44 0 -113 -3 -155 -6 l-77 -7 0 -45 0 -45 38 6 c146 24 257 29 469 25
252 -6 243 -8 243 50 l0 27 -173 -3 -174 -3 -6 98 c-15 219 -19 809 -8 1098
11 275 31 651 47 866 l7 86 111 23 c61 13 113 24 114 26 7 5 -10 84 -16 83 -4
-1 -56 -15 -117 -31z"/>
<path d="M2485 2544 c-157 -33 -303 -137 -358 -256 -56 -119 -62 -197 -61
-804 1 -303 4 -595 8 -648 4 -53 3 -96 -2 -96 -22 0 -335 569 -546 995 -139
280 -203 416 -324 690 -22 50 -44 89 -49 88 -90 -17 -463 -43 -615 -43 l-98 0
0 -36 0 -36 224 8 c214 6 224 6 229 -12 21 -68 66 -427 89 -699 16 -203 17
-675 0 -790 -43 -300 -151 -509 -300 -582 -48 -23 -70 -28 -138 -28 -71 0 -85
3 -122 28 -85 56 -153 202 -154 332 -1 61 3 80 28 125 52 95 128 123 222 80
59 -27 92 -65 92 -106 0 -72 -73 -98 -125 -44 -35 36 -43 37 -55 5 -13 -33 6
-74 37 -81 73 -19 187 36 224 107 59 116 -29 206 -193 198 -101 -6 -172 -42
-264 -133 -58 -58 -73 -81 -88 -129 -35 -113 2 -226 104 -321 103 -95 238
-146 384 -146 154 0 243 51 310 180 82 155 103 261 116 599 11 252 0 818 -20
1062 -6 67 -8 124 -6 126 6 7 205 -298 323 -497 221 -370 529 -931 717 -1307
63 -126 68 -133 96 -133 36 0 35 -13 10 187 -30 248 -41 421 -47 798 -12 715
36 1017 183 1175 63 68 128 94 229 95 97 0 162 -22 204 -70 54 -62 49 -153
-10 -197 -60 -45 -171 -42 -204 5 -21 30 -19 79 5 110 26 33 25 41 -4 57 -66
35 -156 -24 -156 -101 0 -35 6 -47 37 -75 57 -52 133 -77 218 -71 93 7 132 20
203 67 122 82 146 178 65 262 -64 67 -262 96 -418 62z"/>
</g>
</svg>
