<?xml version="1.0" standalone="no"?>
<!DOCTYPE svg PUBLIC "-//W3C//DTD SVG 20010904//EN"
 "http://www.w3.org/TR/2001/REC-SVG-20010904/DTD/svg10.dtd">
<svg version="1.0" xmlns="http://www.w3.org/2000/svg"
 width="483.000000pt" height="517.000000pt" viewBox="0 0 483.000000 517.000000"
 preserveAspectRatio="xMidYMid meet">

<g transform="translate(0.000000,517.000000) scale(0.100000,-0.100000)"
fill="#000000" stroke="none">
<path d="M888 3955 c-4 -34 -3 -35 30 -35 19 0 66 11 104 25 152 55 404 9 438
-80 5 -14 17 -25 25 -25 21 0 75 -59 126 -137 24 -37 49 -63 64 -67 56 -14
154 -168 170 -266 4 -25 12 -56 19 -70 8 -19 12 28 16 215 5 197 9 247 24 280
35 81 101 113 256 123 l105 7 3 33 3 32 -689 0 -690 0 -4 -35z"/>
<path d="M2717 3983 c-4 -3 -7 -18 -7 -33 0 -27 2 -27 75 -34 187 -17 266 -79
294 -231 15 -79 15 -1411 0 -1561 -25 -257 -100 -419 -247 -536 -119 -95 -331
-145 -501 -119 l-74 12 -36 -35 c-51 -49 -134 -85 -227 -96 -44 -5 -88 -8 -99
-7 -26 3 -32 -29 -7 -42 29 -15 209 -31 359 -31 367 0 605 91 802 307 107 116
165 265 192 488 7 63 14 382 18 855 8 849 6 822 82 905 50 55 122 85 215 92
l74 6 0 33 0 34 -453 0 c-250 0 -457 -3 -460 -7z"/>
<path d="M1042 3881 c-58 -20 -87 -42 -108 -83 -28 -54 -11 -130 45 -193 16
-18 30 -37 32 -42 2 -5 20 -21 40 -36 78 -59 159 -13 161 92 1 53 -16 78 -60
92 -55 16 -106 1 -110 -33 -6 -47 59 -62 73 -17 4 11 1 26 -5 34 -17 21 -1 19
37 -5 46 -27 52 -63 22 -119 -32 -61 -70 -67 -123 -21 -77 68 -102 159 -61
228 26 43 91 88 149 103 56 14 154 7 211 -16 33 -13 37 -13 21 -1 -48 38 -234
48 -324 17z"/>
<path d="M1190 3790 c-29 -5 -22 -7 39 -13 67 -7 77 -11 120 -48 78 -69 125
-165 138 -281 7 -70 23 -77 23 -10 -1 121 -51 250 -117 298 -63 46 -133 65
-203 54z"/>
<path d="M1470 3768 c0 -4 5 -19 12 -35 6 -15 11 -31 10 -35 -1 -5 3 -8 8 -8
6 0 9 -3 8 -7 -1 -5 6 -25 15 -45 9 -21 26 -82 38 -135 20 -84 23 -126 22
-298 0 -259 -18 -373 -113 -725 -81 -298 -90 -510 -27 -690 11 -33 49 -90 59
-90 3 0 -3 24 -13 53 -13 35 -18 82 -19 147 0 158 35 322 130 610 102 310 125
652 59 907 -24 93 -106 262 -154 318 -19 22 -35 37 -35 33z"/>
<path d="M1160 3744 c0 -2 12 -10 28 -18 45 -23 98 -78 123 -126 49 -94 31
-230 -47 -347 -19 -29 -34 -57 -34 -63 0 -12 21 -13 52 -1 l23 9 -3 -96 c-4
-116 15 -193 66 -270 31 -48 36 -52 46 -35 18 29 13 202 -7 246 l-16 38 37
-31 c20 -16 42 -30 49 -30 18 0 16 -21 -12 -137 -53 -221 -150 -323 -254 -268
-94 48 -126 179 -61 257 l19 23 1 -27 c0 -35 28 -51 61 -35 43 22 33 87 -13
87 -55 0 -117 -72 -125 -145 -12 -98 79 -205 172 -205 49 0 111 37 150 90 61
83 101 261 109 485 5 152 2 146 -22 -50 -4 -33 -11 -60 -17 -60 -19 0 -44 128
-45 230 -1 208 -32 310 -119 395 -41 39 -71 60 -109 72 -28 9 -52 14 -52 12z"/>
<path d="M1680 3518 c16 -29 36 -91 45 -137 17 -85 17 -116 -1 -427 -6 -105 7
-179 42 -232 22 -33 26 -24 9 23 -20 56 -19 118 6 297 21 149 22 162 7 251
-16 101 -49 185 -95 242 -40 50 -46 43 -13 -17z"/>
<path d="M1154 3480 c-74 -30 -58 -140 21 -140 38 0 55 16 55 52 0 31 -35 57
-52 40 -7 -7 -4 -10 7 -9 26 3 42 -27 26 -47 -21 -25 -60 -20 -73 10 -23 49
32 93 86 70 17 -8 30 -19 28 -25 -1 -7 2 -9 9 -5 8 5 10 -10 7 -55 -4 -55 -3
-59 8 -39 49 88 -30 185 -122 148z"/>
<path d="M1872 3180 c0 -14 2 -19 5 -12 2 6 2 18 0 25 -3 6 -5 1 -5 -13z"/>
<path d="M1872 2955 c-4 -151 -51 -344 -122 -500 -15 -33 -30 -70 -34 -83 -4
-12 -23 -46 -42 -75 -58 -88 -76 -149 -82 -273 -5 -122 9 -194 54 -271 29 -50
98 -109 139 -118 l30 -7 -37 28 c-21 16 -49 45 -62 65 -55 81 -77 232 -53 364
24 131 52 191 121 262 66 67 83 75 88 42 7 -47 89 -39 96 9 6 39 -67 54 -141
28 -34 -13 -37 -12 -33 3 2 9 16 57 30 106 46 163 57 241 54 375 -3 87 -4 101
-6 45z"/>
<path d="M1673 2573 c-22 -52 -111 -327 -139 -433 -50 -186 5 -500 101 -580 8
-7 12 -16 9 -21 -3 -5 1 -9 8 -9 7 0 26 -14 42 -30 16 -17 55 -43 85 -58 50
-24 67 -27 151 -26 119 1 191 26 245 85 58 65 68 109 39 191 -19 56 -97 138
-160 167 -57 27 -138 28 -181 1 -94 -57 -78 -226 21 -217 29 2 57 30 44 43 -4
3 -27 9 -53 11 -25 3 -45 8 -45 12 0 31 26 84 51 105 57 48 137 29 218 -52
203 -203 -85 -386 -377 -238 -101 51 -164 154 -190 311 -25 143 -7 263 79 540
51 168 58 183 69 165 7 -11 14 -12 35 -2 22 10 26 18 23 45 -2 26 -8 33 -29
35 -23 3 -29 -3 -46 -45z"/>
<path d="M1334 2551 c-71 -43 -91 -100 -96 -280 -2 -67 1 -105 8 -108 15 -5
44 63 51 118 5 39 9 46 24 42 17 -5 17 -3 -2 33 -11 23 -19 58 -19 89 0 43 4
55 28 77 15 14 36 30 47 36 14 8 15 11 5 12 -8 0 -29 -9 -46 -19z"/>
<path d="M1390 2484 c0 -5 -9 -43 -20 -83 -34 -126 -44 -243 -30 -346 14 -103
52 -228 81 -265 19 -24 19 -24 -1 28 -49 129 -64 359 -35 561 8 57 13 107 10
109 -3 3 -5 1 -5 -4z"/>
<path d="M1872 2254 c-7 -11 -12 -13 -12 -6 0 8 -5 10 -12 5 -7 -4 -19 -8 -25
-9 -21 -3 -66 -43 -87 -77 -37 -60 -24 -176 26 -237 13 -15 63 -50 72 -50 3 0
-8 19 -24 43 -101 150 -6 329 167 315 52 -5 54 -4 29 9 -15 8 -49 17 -75 20
-41 5 -50 2 -59 -13z"/>
<path d="M2070 2203 c1 -4 7 -19 15 -33 22 -39 18 -95 -10 -140 -29 -46 -52
-60 -99 -60 -35 0 -96 40 -96 63 0 8 4 7 12 -1 17 -17 55 -15 62 4 11 28 6 51
-13 68 -28 25 -53 16 -74 -25 -16 -34 -16 -40 -2 -76 19 -48 59 -73 118 -73
112 0 178 116 128 226 -17 38 -41 66 -41 47z"/>
<path d="M1253 2072 c-23 -14 24 -252 54 -277 7 -5 11 -19 9 -30 -10 -66 140
-252 274 -337 86 -55 201 -110 237 -113 55 -6 38 20 -29 45 -100 36 -195 116
-267 223 -18 26 -38 47 -44 47 -16 0 -107 95 -134 140 -31 50 -73 183 -81 251
-5 43 -10 56 -19 51z"/>
</g>
</svg>
